# xmcd CD database file
# Copyright 1993-1996 (C) Ti Kan
#
# Track frame offsets:
#    182
#    13632
#    30170
#    48202
#    64430
#    81890
#    94300
#    109317
#    127792
#    141950
#    156202
#    172392
#
# Disc length: 2490 seconds
#
# Revision: 1
# Processed by: cddbd v1.4PL0 Copyright (c) Steve Scherf et al.
# Submitted via: Gronk 1.4
#
DISCID=9f09b80c
DTITLE=Emmylou Harris - Duets
DYEAR=1900
DGENRE=country
TTITLE0=The Price I Pay (Desert Rose Band)
TTITLE1=Love Hurts (Gram Parsons)
TTITLE2=That Lovin' You Feelin' Again (Roy Orbison)
TTITLE3=We Believe In Happy Endings (Earl T Conley)
TTITLE4=Thing About You (Southern Pacific)
TTITLE5=Star of Bethlehem (Neil Young)
TTITLE6=All Fall Down (George Jones)
TTITLE7=Wild Montana Skies (John Denver)
TTITLE8=Green Pastures (Ricky Skaggs)
TTITLE9=Gulf Coast Highway (Willie Nelson)
TTITLE10=If I Needed You (Don Williams)
TTITLE11=Evangeline (The Band)
EXTD=
EXTT0=
EXTT1=
EXTT2=
EXTT3=
EXTT4=
EXTT5=
EXTT6=
EXTT7=
EXTT8=
EXTT9=
EXTT10=
EXTT11=
PLAYORDER=
